<?xml version="1.0" encoding="UTF-8" ?>
<svg version="1.1" width="64" height="64" xmlns="http://www.w3.org/2000/svg" shape-rendering="crispEdges">
<rect x="31" y="8" width="1" height="1" fill="#55768A" />
<rect x="31" y="9" width="1" height="1" fill="#55768A" />
<rect x="32" y="9" width="1" height="1" fill="#55768A" />
<rect x="31" y="10" width="1" height="1" fill="#55768A" />
<rect x="32" y="10" width="1" height="1" fill="#8EC4E5" />
<rect x="31" y="11" width="1" height="1" fill="#55768A" />
<rect x="32" y="11" width="1" height="1" fill="#8EC4E5" />
<rect x="33" y="11" width="1" height="1" fill="#8EC4E5" />
<rect x="31" y="12" width="1" height="1" fill="#55768A" />
<rect x="32" y="12" width="1" height="1" fill="#8EC4E5" />
<rect x="33" y="12" width="1" height="1" fill="#8EC4E5" />
<rect x="31" y="13" width="1" height="1" fill="#55768A" />
<rect x="32" y="13" width="1" height="1" fill="#55768A" />
<rect x="33" y="13" width="1" height="1" fill="#8EC4E5" />
<rect x="31" y="14" width="1" height="1" fill="#55768A" />
<rect x="32" y="14" width="1" height="1" fill="#55768A" />
<rect x="33" y="14" width="1" height="1" fill="#8EC4E5" />
<rect x="34" y="14" width="1" height="1" fill="#8EC4E5" />
<rect x="31" y="15" width="1" height="1" fill="#55768A" />
<rect x="32" y="15" width="1" height="1" fill="#55768A" />
<rect x="33" y="15" width="1" height="1" fill="#8EC4E5" />
<rect x="34" y="15" width="1" height="1" fill="#8EC4E5" />
<rect x="30" y="16" width="1" height="1" fill="#55768A" />
<rect x="31" y="16" width="1" height="1" fill="#55768A" />
<rect x="32" y="16" width="1" height="1" fill="#55768A" />
<rect x="33" y="16" width="1" height="1" fill="#8EC4E5" />
<rect x="34" y="16" width="1" height="1" fill="#8EC4E5" />
<rect x="30" y="17" width="1" height="1" fill="#55768A" />
<rect x="31" y="17" width="1" height="1" fill="#55768A" />
<rect x="32" y="17" width="1" height="1" fill="#8EC4E5" />
<rect x="33" y="17" width="1" height="1" fill="#8EC4E5" />
<rect x="34" y="17" width="1" height="1" fill="#8EC4E5" />
<rect x="29" y="18" width="1" height="1" fill="#55768A" />
<rect x="30" y="18" width="1" height="1" fill="#55768A" />
<rect x="31" y="18" width="1" height="1" fill="#55768A" />
<rect x="32" y="18" width="1" height="1" fill="#8EC4E5" />
<rect x="33" y="18" width="1" height="1" fill="#8EC4E5" />
<rect x="29" y="19" width="1" height="1" fill="#55768A" />
<rect x="30" y="19" width="1" height="1" fill="#55768A" />
<rect x="31" y="19" width="1" height="1" fill="#8EC4E5" />
<rect x="32" y="19" width="1" height="1" fill="#8EC4E5" />
<rect x="33" y="19" width="1" height="1" fill="#8EC4E5" />
<rect x="28" y="20" width="1" height="1" fill="#55768A" />
<rect x="29" y="20" width="1" height="1" fill="#55768A" />
<rect x="30" y="20" width="1" height="1" fill="#55768A" />
<rect x="31" y="20" width="1" height="1" fill="#8EC4E5" />
<rect x="32" y="20" width="1" height="1" fill="#8EC4E5" />
<rect x="33" y="20" width="1" height="1" fill="#8EC4E5" />
<rect x="27" y="21" width="1" height="1" fill="#55768A" />
<rect x="28" y="21" width="1" height="1" fill="#55768A" />
<rect x="29" y="21" width="1" height="1" fill="#55768A" />
<rect x="30" y="21" width="1" height="1" fill="#8EC4E5" />
<rect x="31" y="21" width="1" height="1" fill="#8EC4E5" />
<rect x="32" y="21" width="1" height="1" fill="#8EC4E5" />
<rect x="27" y="22" width="1" height="1" fill="#55768A" />
<rect x="28" y="22" width="1" height="1" fill="#55768A" />
<rect x="29" y="22" width="1" height="1" fill="#55768A" />
<rect x="30" y="22" width="1" height="1" fill="#8EC4E5" />
<rect x="31" y="22" width="1" height="1" fill="#8EC4E5" />
<rect x="32" y="22" width="1" height="1" fill="#8EC4E5" />
<rect x="26" y="23" width="1" height="1" fill="#55768A" />
<rect x="27" y="23" width="1" height="1" fill="#55768A" />
<rect x="28" y="23" width="1" height="1" fill="#55768A" />
<rect x="29" y="23" width="1" height="1" fill="#8EC4E5" />
<rect x="30" y="23" width="1" height="1" fill="#8EC4E5" />
<rect x="31" y="23" width="1" height="1" fill="#8EC4E5" />
<rect x="24" y="24" width="1" height="1" fill="#55768A" />
<rect x="25" y="24" width="1" height="1" fill="#55768A" />
<rect x="26" y="24" width="1" height="1" fill="#55768A" />
<rect x="27" y="24" width="1" height="1" fill="#55768A" />
<rect x="28" y="24" width="1" height="1" fill="#8EC4E5" />
<rect x="29" y="24" width="1" height="1" fill="#8EC4E5" />
<rect x="30" y="24" width="1" height="1" fill="#8EC4E5" />
<rect x="22" y="25" width="1" height="1" fill="#55768A" />
<rect x="23" y="25" width="1" height="1" fill="#55768A" />
<rect x="24" y="25" width="1" height="1" fill="#55768A" />
<rect x="25" y="25" width="1" height="1" fill="#55768A" />
<rect x="26" y="25" width="1" height="1" fill="#8EC4E5" />
<rect x="27" y="25" width="1" height="1" fill="#8EC4E5" />
<rect x="28" y="25" width="1" height="1" fill="#8EC4E5" />
<rect x="20" y="26" width="1" height="1" fill="#55768A" />
<rect x="21" y="26" width="1" height="1" fill="#55768A" />
<rect x="22" y="26" width="1" height="1" fill="#55768A" />
<rect x="23" y="26" width="1" height="1" fill="#8EC4E5" />
<rect x="24" y="26" width="1" height="1" fill="#8EC4E5" />
<rect x="25" y="26" width="1" height="1" fill="#8EC4E5" />
<rect x="26" y="26" width="1" height="1" fill="#8EC4E5" />
<rect x="17" y="27" width="1" height="1" fill="#55768A" />
<rect x="18" y="27" width="1" height="1" fill="#55768A" />
<rect x="19" y="27" width="1" height="1" fill="#55768A" />
<rect x="20" y="27" width="1" height="1" fill="#55768A" />
<rect x="21" y="27" width="1" height="1" fill="#8EC4E5" />
<rect x="22" y="27" width="1" height="1" fill="#8EC4E5" />
<rect x="23" y="27" width="1" height="1" fill="#8EC4E5" />
<rect x="24" y="27" width="1" height="1" fill="#8EC4E5" />
<rect x="14" y="28" width="1" height="1" fill="#55768A" />
<rect x="15" y="28" width="1" height="1" fill="#55768A" />
<rect x="16" y="28" width="1" height="1" fill="#55768A" />
<rect x="17" y="28" width="1" height="1" fill="#8EC4E5" />
<rect x="18" y="28" width="1" height="1" fill="#8EC4E5" />
<rect x="19" y="28" width="1" height="1" fill="#8EC4E5" />
<rect x="20" y="28" width="1" height="1" fill="#8EC4E5" />
<rect x="21" y="28" width="1" height="1" fill="#8EC4E5" />
<rect x="10" y="29" width="1" height="1" fill="#55768A" />
<rect x="11" y="29" width="1" height="1" fill="#55768A" />
<rect x="12" y="29" width="1" height="1" fill="#55768A" />
<rect x="13" y="29" width="1" height="1" fill="#55768A" />
<rect x="14" y="29" width="1" height="1" fill="#55768A" />
<rect x="15" y="29" width="1" height="1" fill="#8EC4E5" />
<rect x="16" y="29" width="1" height="1" fill="#8EC4E5" />
<rect x="17" y="29" width="1" height="1" fill="#8EC4E5" />
<rect x="5" y="30" width="1" height="1" fill="#55768A" />
<rect x="6" y="30" width="1" height="1" fill="#55768A" />
<rect x="7" y="30" width="1" height="1" fill="#55768A" />
<rect x="8" y="30" width="1" height="1" fill="#55768A" />
<rect x="9" y="30" width="1" height="1" fill="#55768A" />
<rect x="10" y="30" width="1" height="1" fill="#55768A" />
<rect x="11" y="30" width="1" height="1" fill="#8EC4E5" />
<rect x="12" y="30" width="1" height="1" fill="#8EC4E5" />
<rect x="13" y="30" width="1" height="1" fill="#8EC4E5" />
<rect x="31" y="30" width="1" height="1" fill="#55768A" />
<rect x="32" y="30" width="1" height="1" fill="#55768A" />
<rect x="0" y="31" width="1" height="1" fill="#55768A" />
<rect x="1" y="31" width="1" height="1" fill="#55768A" />
<rect x="2" y="31" width="1" height="1" fill="#55768A" />
<rect x="3" y="31" width="1" height="1" fill="#55768A" />
<rect x="4" y="31" width="1" height="1" fill="#55768A" />
<rect x="5" y="31" width="1" height="1" fill="#55768A" />
<rect x="30" y="31" width="1" height="1" fill="#55768A" />
<rect x="31" y="31" width="1" height="1" fill="#55768A" />
<rect x="32" y="31" width="1" height="1" fill="#8EC4E5" />
<rect x="33" y="31" width="1" height="1" fill="#55768A" />
<rect x="30" y="32" width="1" height="1" fill="#55768A" />
<rect x="31" y="32" width="1" height="1" fill="#8EC4E5" />
<rect x="32" y="32" width="1" height="1" fill="#8EC4E5" />
<rect x="33" y="32" width="1" height="1" fill="#8EC4E5" />
<rect x="58" y="32" width="1" height="1" fill="#55768A" />
<rect x="59" y="32" width="1" height="1" fill="#55768A" />
<rect x="60" y="32" width="1" height="1" fill="#55768A" />
<rect x="61" y="32" width="1" height="1" fill="#55768A" />
<rect x="62" y="32" width="1" height="1" fill="#55768A" />
<rect x="63" y="32" width="1" height="1" fill="#55768A" />
<rect x="31" y="33" width="1" height="1" fill="#55768A" />
<rect x="32" y="33" width="1" height="1" fill="#8EC4E5" />
<rect x="50" y="33" width="1" height="1" fill="#55768A" />
<rect x="51" y="33" width="1" height="1" fill="#55768A" />
<rect x="52" y="33" width="1" height="1" fill="#55768A" />
<rect x="53" y="33" width="1" height="1" fill="#55768A" />
<rect x="54" y="33" width="1" height="1" fill="#55768A" />
<rect x="55" y="33" width="1" height="1" fill="#55768A" />
<rect x="56" y="33" width="1" height="1" fill="#55768A" />
<rect x="57" y="33" width="1" height="1" fill="#55768A" />
<rect x="58" y="33" width="1" height="1" fill="#55768A" />
<rect x="46" y="34" width="1" height="1" fill="#55768A" />
<rect x="47" y="34" width="1" height="1" fill="#55768A" />
<rect x="48" y="34" width="1" height="1" fill="#55768A" />
<rect x="49" y="34" width="1" height="1" fill="#55768A" />
<rect x="50" y="34" width="1" height="1" fill="#55768A" />
<rect x="51" y="34" width="1" height="1" fill="#8EC4E5" />
<rect x="52" y="34" width="1" height="1" fill="#8EC4E5" />
<rect x="53" y="34" width="1" height="1" fill="#8EC4E5" />
<rect x="42" y="35" width="1" height="1" fill="#55768A" />
<rect x="43" y="35" width="1" height="1" fill="#55768A" />
<rect x="44" y="35" width="1" height="1" fill="#55768A" />
<rect x="45" y="35" width="1" height="1" fill="#55768A" />
<rect x="46" y="35" width="1" height="1" fill="#55768A" />
<rect x="47" y="35" width="1" height="1" fill="#8EC4E5" />
<rect x="48" y="35" width="1" height="1" fill="#8EC4E5" />
<rect x="49" y="35" width="1" height="1" fill="#8EC4E5" />
<rect x="39" y="36" width="1" height="1" fill="#55768A" />
<rect x="40" y="36" width="1" height="1" fill="#55768A" />
<rect x="41" y="36" width="1" height="1" fill="#55768A" />
<rect x="42" y="36" width="1" height="1" fill="#55768A" />
<rect x="43" y="36" width="1" height="1" fill="#8EC4E5" />
<rect x="44" y="36" width="1" height="1" fill="#8EC4E5" />
<rect x="45" y="36" width="1" height="1" fill="#8EC4E5" />
<rect x="46" y="36" width="1" height="1" fill="#8EC4E5" />
<rect x="37" y="37" width="1" height="1" fill="#55768A" />
<rect x="38" y="37" width="1" height="1" fill="#55768A" />
<rect x="39" y="37" width="1" height="1" fill="#55768A" />
<rect x="40" y="37" width="1" height="1" fill="#55768A" />
<rect x="41" y="37" width="1" height="1" fill="#8EC4E5" />
<rect x="42" y="37" width="1" height="1" fill="#8EC4E5" />
<rect x="43" y="37" width="1" height="1" fill="#8EC4E5" />
<rect x="35" y="38" width="1" height="1" fill="#55768A" />
<rect x="36" y="38" width="1" height="1" fill="#55768A" />
<rect x="37" y="38" width="1" height="1" fill="#55768A" />
<rect x="38" y="38" width="1" height="1" fill="#8EC4E5" />
<rect x="39" y="38" width="1" height="1" fill="#8EC4E5" />
<rect x="40" y="38" width="1" height="1" fill="#8EC4E5" />
<rect x="41" y="38" width="1" height="1" fill="#8EC4E5" />
<rect x="33" y="39" width="1" height="1" fill="#55768A" />
<rect x="34" y="39" width="1" height="1" fill="#55768A" />
<rect x="35" y="39" width="1" height="1" fill="#55768A" />
<rect x="36" y="39" width="1" height="1" fill="#8EC4E5" />
<rect x="37" y="39" width="1" height="1" fill="#8EC4E5" />
<rect x="38" y="39" width="1" height="1" fill="#8EC4E5" />
<rect x="39" y="39" width="1" height="1" fill="#8EC4E5" />
<rect x="32" y="40" width="1" height="1" fill="#55768A" />
<rect x="33" y="40" width="1" height="1" fill="#55768A" />
<rect x="34" y="40" width="1" height="1" fill="#55768A" />
<rect x="35" y="40" width="1" height="1" fill="#8EC4E5" />
<rect x="36" y="40" width="1" height="1" fill="#8EC4E5" />
<rect x="37" y="40" width="1" height="1" fill="#8EC4E5" />
<rect x="31" y="41" width="1" height="1" fill="#55768A" />
<rect x="32" y="41" width="1" height="1" fill="#55768A" />
<rect x="33" y="41" width="1" height="1" fill="#55768A" />
<rect x="34" y="41" width="1" height="1" fill="#8EC4E5" />
<rect x="35" y="41" width="1" height="1" fill="#8EC4E5" />
<rect x="36" y="41" width="1" height="1" fill="#8EC4E5" />
<rect x="31" y="42" width="1" height="1" fill="#55768A" />
<rect x="32" y="42" width="1" height="1" fill="#55768A" />
<rect x="33" y="42" width="1" height="1" fill="#55768A" />
<rect x="34" y="42" width="1" height="1" fill="#8EC4E5" />
<rect x="35" y="42" width="1" height="1" fill="#8EC4E5" />
<rect x="36" y="42" width="1" height="1" fill="#8EC4E5" />
<rect x="30" y="43" width="1" height="1" fill="#55768A" />
<rect x="31" y="43" width="1" height="1" fill="#55768A" />
<rect x="32" y="43" width="1" height="1" fill="#55768A" />
<rect x="33" y="43" width="1" height="1" fill="#8EC4E5" />
<rect x="34" y="43" width="1" height="1" fill="#8EC4E5" />
<rect x="35" y="43" width="1" height="1" fill="#8EC4E5" />
<rect x="30" y="44" width="1" height="1" fill="#55768A" />
<rect x="31" y="44" width="1" height="1" fill="#55768A" />
<rect x="32" y="44" width="1" height="1" fill="#55768A" />
<rect x="33" y="44" width="1" height="1" fill="#8EC4E5" />
<rect x="34" y="44" width="1" height="1" fill="#8EC4E5" />
<rect x="30" y="45" width="1" height="1" fill="#55768A" />
<rect x="31" y="45" width="1" height="1" fill="#55768A" />
<rect x="32" y="45" width="1" height="1" fill="#8EC4E5" />
<rect x="33" y="45" width="1" height="1" fill="#8EC4E5" />
<rect x="34" y="45" width="1" height="1" fill="#8EC4E5" />
<rect x="29" y="46" width="1" height="1" fill="#55768A" />
<rect x="30" y="46" width="1" height="1" fill="#55768A" />
<rect x="31" y="46" width="1" height="1" fill="#55768A" />
<rect x="32" y="46" width="1" height="1" fill="#8EC4E5" />
<rect x="33" y="46" width="1" height="1" fill="#8EC4E5" />
<rect x="29" y="47" width="1" height="1" fill="#55768A" />
<rect x="30" y="47" width="1" height="1" fill="#55768A" />
<rect x="31" y="47" width="1" height="1" fill="#8EC4E5" />
<rect x="32" y="47" width="1" height="1" fill="#8EC4E5" />
<rect x="33" y="47" width="1" height="1" fill="#8EC4E5" />
<rect x="29" y="48" width="1" height="1" fill="#55768A" />
<rect x="30" y="48" width="1" height="1" fill="#55768A" />
<rect x="31" y="48" width="1" height="1" fill="#8EC4E5" />
<rect x="32" y="48" width="1" height="1" fill="#8EC4E5" />
<rect x="29" y="49" width="1" height="1" fill="#55768A" />
<rect x="30" y="49" width="1" height="1" fill="#55768A" />
<rect x="31" y="49" width="1" height="1" fill="#8EC4E5" />
<rect x="32" y="49" width="1" height="1" fill="#8EC4E5" />
<rect x="30" y="50" width="1" height="1" fill="#55768A" />
<rect x="31" y="50" width="1" height="1" fill="#8EC4E5" />
<rect x="32" y="50" width="1" height="1" fill="#8EC4E5" />
<rect x="30" y="51" width="1" height="1" fill="#55768A" />
<rect x="31" y="51" width="1" height="1" fill="#55768A" />
<rect x="32" y="51" width="1" height="1" fill="#8EC4E5" />
<rect x="30" y="52" width="1" height="1" fill="#55768A" />
<rect x="31" y="52" width="1" height="1" fill="#55768A" />
<rect x="32" y="52" width="1" height="1" fill="#8EC4E5" />
<rect x="31" y="53" width="1" height="1" fill="#55768A" />
<rect x="32" y="53" width="1" height="1" fill="#8EC4E5" />
<rect x="31" y="54" width="1" height="1" fill="#55768A" />
<rect x="32" y="54" width="1" height="1" fill="#8EC4E5" />
<rect x="32" y="55" width="1" height="1" fill="#55768A" />
</svg>